<svg width="1232" height="1472" viewBox="0 0 1232 1472" fill="none" xmlns="http://www.w3.org/2000/svg">
<mask id="mask0_2258_106" style="mask-type:luminance" maskUnits="userSpaceOnUse" x="130" y="167" width="1695" height="1178">
<path d="M1824.47 726.478C1810.1 744.262 1794.88 762.55 1778.68 780.976C1778.85 779.683 1779.19 778.326 1779.36 777.033C1770.37 784.292 1761.51 791.917 1752.65 799.543C1666.77 874.226 1582.64 950.972 1495.76 1024.56C1376.04 1126.1 1230.23 1161.83 1096.2 1136.42L1220.48 1022.59C1281.65 1016.23 1341.24 992.938 1391.96 951.95C1502.33 862.533 1606.44 765.217 1715.18 673.488C1738.74 653.727 1763.02 637.213 1788.32 623.633L1824.29 726.542L1824.47 726.478ZM836.625 538.591C835.808 541.552 834.926 544.331 834.109 547.292C814.798 622.793 820.66 700.818 847.48 770.489C869.897 841.698 913.914 906.388 976.05 953.424C978.351 955.295 980.707 956.736 983.191 958.544L893.247 1041.03C859.1 1012.82 828.009 979.227 801.075 939.855C772.005 897.319 750.052 853.942 734.73 810.1C719.407 766.259 709.745 718.586 705.806 667.267C702.425 620.487 705.462 575.58 714.312 533.171L836.625 538.591ZM1196.48 167.661C1310.1 171.178 1423.91 178.749 1537.61 183.678C1570.02 185.114 1602.53 185.688 1634.38 181.97L1675.28 299.004C1647.02 304.145 1617.62 306.598 1587 305.567C1444.8 301.541 1302.67 290.079 1160.69 289.061C1097.94 288.556 1038.76 305.944 988.267 336.973L814.353 328.797C864.458 270.734 929.497 225.36 1004.87 197.782C1007.26 196.949 1009.64 196.115 1012.03 195.282C1068.53 175.536 1130.7 165.54 1196.48 167.661ZM438.233 395.82C494.915 376.01 557.15 366.198 622.874 368.135C736.495 371.653 850.296 379.223 963.999 384.153C1029.61 386.952 1096.22 386.111 1155.06 354.224C1222.01 317.856 1289.96 337.337 1369.85 337.41C1266.75 449.399 1154.12 509.965 1013.21 506.106C871.003 502.08 728.875 490.617 586.899 489.6C431.46 488.347 298.999 597.013 260.498 747.767C241.188 823.268 247.05 901.293 273.87 970.963C296.287 1042.17 340.304 1106.86 402.44 1153.9C526.465 1247.85 697.777 1250.35 818.596 1152.54C929.149 1063.06 1033.19 965.563 1142 874.018C1249.64 783.288 1375.48 760.51 1526.08 783.834C1463.56 833.473 1422.54 891.036 1347.58 904.473C1281.68 916.182 1229.24 956.949 1179.47 1000.07C1093.59 1074.76 1009.46 1151.5 922.583 1225.09C700.565 1413.23 388.942 1376.19 227.584 1140.08C198.514 1097.55 176.561 1054.17 161.239 1010.33C145.916 966.486 136.254 918.814 132.315 867.494C116.619 653.549 236.879 474.633 420.751 402.342C426.374 400.171 432.18 397.936 438.05 395.885L438.233 395.82Z" fill="white"/>
</mask>
<g mask="url(#mask0_2258_106)">
<path d="M-0.183596 549.046L1570.59 0.0642395L1916.09 988.611L345.31 1537.59L-0.183596 549.046Z" fill="#FAFFE5"/>
</g>
</svg>
