<svg width="783" height="12" viewBox="0 0 783 12" fill="none" xmlns="http://www.w3.org/2000/svg">
<path d="M0.666667 6C0.666667 8.94552 3.05448 11.3333 6 11.3333C8.94552 11.3333 11.3333 8.94552 11.3333 6C11.3333 3.05448 8.94552 0.666667 6 0.666667C3.05448 0.666667 0.666667 3.05448 0.666667 6ZM1145.67 6C1145.67 8.94552 1148.05 11.3333 1151 11.3333C1153.95 11.3333 1156.33 8.94552 1156.33 6C1156.33 3.05448 1153.95 0.666667 1151 0.666667C1148.05 0.666667 1145.67 3.05448 1145.67 6ZM6 6V7H9.97569V6V5H6V6ZM17.9271 6V7H25.8785V6V5H17.9271V6ZM33.8299 6V7H41.7812V6V5H33.8299V6ZM49.7326 6V7H57.684V6V5H49.7326V6ZM65.6354 6V7H73.5868V6V5H65.6354V6ZM81.5382 6V7H89.4896V6V5H81.5382V6ZM97.441 6V7H105.392V6V5H97.441V6ZM113.344 6V7H121.295V6V5H113.344V6ZM129.247 6V7H137.198V6V5H129.247V6ZM145.149 6V7H153.101V6V5H145.149V6ZM161.052 6V7H169.003V6V5H161.052V6ZM176.955 6V7H184.906V6V5H176.955V6ZM192.858 6V7H200.809V6V5H192.858V6ZM208.76 6V7H216.712V6V5H208.76V6ZM224.663 6V7H232.615V6V5H224.663V6ZM240.566 6V7H248.517V6V5H240.566V6ZM256.469 6V7H264.42V6V5H256.469V6ZM272.371 6V7H280.323V6V5H272.371V6ZM288.274 6V7H296.226V6V5H288.274V6ZM304.177 6V7H312.128V6V5H304.177V6ZM320.08 6V7H328.031V6V5H320.08V6ZM335.983 6V7H343.934V6V5H335.983V6ZM351.885 6V7H359.837V6V5H351.885V6ZM367.788 6V7H375.739V6V5H367.788V6ZM383.691 6V7H391.642V6V5H383.691V6ZM399.594 6V7H407.545V6V5H399.594V6ZM415.496 6V7H423.448V6V5H415.496V6ZM431.399 6V7H439.351V6V5H431.399V6ZM447.302 6V7H455.253V6V5H447.302V6ZM463.205 6V7H471.156V6V5H463.205V6ZM479.107 6V7H487.059V6V5H479.107V6ZM495.01 6V7H502.962V6V5H495.01V6ZM510.913 6V7H518.864V6V5H510.913V6ZM526.816 6V7H534.767V6V5H526.816V6ZM542.719 6V7H550.67V6V5H542.719V6ZM558.622 6V7H566.573V6V5H558.622V6ZM574.524 6V7H582.476V6V5H574.524V6ZM590.427 6V7H598.379V6V5H590.427V6ZM606.33 6V7H614.281V6V5H606.33V6ZM622.233 6V7H630.184V6V5H622.233V6ZM638.136 6V7H646.087V6V5H638.136V6ZM654.039 6V7H661.99V6V5H654.039V6ZM669.941 6V7H677.893V6V5H669.941V6ZM685.844 6V7H693.796V6V5H685.844V6ZM701.747 6V7H709.698V6V5H701.747V6ZM717.65 6V7H725.601V6V5H717.65V6ZM733.553 6V7H741.504V6V5H733.553V6ZM749.456 6V7H757.407V6V5H749.456V6ZM765.358 6V7H773.31V6V5H765.358V6ZM781.261 6V7H789.213V6V5H781.261V6ZM797.164 6V7H805.115V6V5H797.164V6ZM813.067 6V7H821.018V6V5H813.067V6ZM828.97 6V7H836.921V6V5H828.97V6ZM844.872 6V7H852.824V6V5H844.872V6ZM860.775 6V7H868.727V6V5H860.775V6ZM876.678 6V7H884.63V6V5H876.678V6ZM892.581 6V7H900.532V6V5H892.581V6ZM908.484 6V7H916.435V6V5H908.484V6ZM924.387 6V7H932.338V6V5H924.387V6ZM940.289 6V7H948.241V6V5H940.289V6ZM956.192 6V7H964.144V6V5H956.192V6ZM972.095 6V7H980.047V6V5H972.095V6ZM987.998 6V7H995.949V6V5H987.998V6ZM1003.9 6V7H1011.85V6V5H1003.9V6ZM1019.8 6V7H1027.76V6V5H1019.8V6ZM1035.71 6V7H1043.66V6V5H1035.71V6ZM1051.61 6V7H1059.56V6V5H1051.61V6ZM1067.51 6V7H1075.46V6V5H1067.51V6ZM1083.41 6V7H1091.37V6V5H1083.41V6ZM1099.32 6V7H1107.27V6V5H1099.32V6ZM1115.22 6V7H1123.17V6V5H1115.22V6ZM1131.12 6V7H1139.07V6V5H1131.12V6ZM1147.03 6V7H1151V6V5H1147.03V6Z" fill="#7A6FE7"/>
</svg>
