<svg width="72" height="72" viewBox="0 0 72 72" fill="none" xmlns="http://www.w3.org/2000/svg">
<path d="M0 67.9549C0 70.1869 1.8227 72 4.06653 72H67.9335C70.1773 72 72 70.1869 72 67.9549V66.672C72 64.44 70.1773 62.6269 67.9335 62.6269H66.1568V30.3185H68.1243C70.2628 30.3185 72 28.5905 72 26.4633V16.8087C72 14.6815 70.2628 12.9535 68.1243 12.9535C65.8607 12.9535 66.1568 13.0124 66.1568 12.8095C66.1568 8.14909 62.3601 4.35273 57.6948 4.35273H27.8998V0.981818C27.8998 0.438545 27.459 0 26.9128 0H20.4445C19.8984 0 19.4575 0.438545 19.4575 0.981818V4.35273H15.9832C11.3179 4.35273 7.52111 8.14909 7.52111 12.8095V30.3775C7.52111 32.0989 8.92268 33.4931 10.6467 33.4931H11.5021V34.5404C11.5021 36.2945 12.9366 37.7215 14.7001 37.7215H15.187V40.4444C15.187 41.7404 17.161 41.7404 17.161 40.4444V37.7215H17.648C19.4114 37.7215 20.8459 36.2945 20.8459 34.5404V33.4931H21.7013C23.4253 33.4931 24.8269 32.0924 24.8269 30.3775V25.6778C24.8269 23.7862 26.3667 22.2415 28.2552 22.2415H38.9084C40.7969 22.2415 42.3367 23.7796 42.3367 25.6778V45.8313H14.1868C9.53464 45.8313 5.61945 49.6145 5.61945 54.3731V62.6335H4.06653C1.8227 62.6335 0 64.4465 0 66.6785V67.9615V67.9549ZM1.97405 66.672C1.97405 65.5265 2.91501 64.5905 4.06653 64.5905H67.9335C69.085 64.5905 70.026 65.5265 70.026 66.672V67.9549C70.026 69.1004 69.085 70.0364 67.9335 70.0364H4.06653C2.91501 70.0364 1.97405 69.1004 1.97405 67.9549V66.672ZM7.59349 54.3665C7.59349 51.0807 10.0347 48.3578 13.1998 47.8735V59.3607C13.1998 59.904 13.6407 60.3425 14.1868 60.3425H31.4729C32.019 60.3425 32.4599 59.904 32.4599 59.3607V47.7949H64.1828V62.6335H7.59349V54.3731V54.3665ZM15.1738 47.7884H30.4858V58.3724H15.1738V47.7884ZM38.915 20.2713H28.2617C25.2809 20.2713 22.8594 22.6931 22.8594 25.6713V30.3709C22.8594 31.0058 22.3462 31.5229 21.7079 31.5229H10.6467C10.015 31.5229 9.49516 31.0058 9.49516 30.3709V12.8029C9.49516 9.22254 12.4036 6.30982 15.9832 6.30982H57.6948C61.2744 6.30982 64.1828 9.22254 64.1828 12.8029V45.8182H44.3173V25.6647C44.3173 22.6865 41.8958 20.2647 38.915 20.2647V20.2713ZM18.8785 34.5404C18.8785 35.2145 18.3323 35.7578 17.6545 35.7578H14.7001C14.0223 35.7578 13.4761 35.2145 13.4761 34.5404V33.4931H18.8785V34.5404ZM21.4315 1.96364H25.9258V4.35273H21.4315V1.96364ZM70.026 16.8087V26.4633C70.026 27.504 69.1705 28.3549 68.1243 28.3549H66.1568V14.9171H68.1243C69.1705 14.9171 70.026 15.768 70.026 16.8087Z" fill="#D4FF32"/>
<path d="M54.0947 24.6568C57.4637 24.6568 60.201 21.9208 60.201 18.5564C60.201 15.1921 57.4637 12.4561 54.0947 12.4561C50.7256 12.4561 47.9883 15.1921 47.9883 18.5564C47.9883 21.9208 50.7256 24.6568 54.0947 24.6568ZM54.0947 14.4197C56.3714 14.4197 58.227 16.2721 58.227 18.5564C58.227 20.8408 56.3714 22.6931 54.0947 22.6931C51.8179 22.6931 49.9623 20.8408 49.9623 18.5564C49.9623 16.2721 51.8179 14.4197 54.0947 14.4197Z" fill="#D4FF32"/>
<path d="M17.5687 11.3105C15.7591 11.3105 14.2852 12.7833 14.2852 14.5898C14.2852 16.3964 15.7591 17.8691 17.5687 17.8691C19.3782 17.8691 20.8521 16.3964 20.8521 14.5898C20.8521 12.7833 19.3782 11.3105 17.5687 11.3105ZM17.5687 15.9055C16.8448 15.9055 16.2592 15.3164 16.2592 14.5898C16.2592 13.8633 16.8448 13.2742 17.5687 13.2742C18.2925 13.2742 18.8781 13.8633 18.8781 14.5898C18.8781 15.3164 18.2925 15.9055 17.5687 15.9055Z" fill="#D4FF32"/>
<path d="M48.9753 40.0713H59.2074C59.7536 40.0713 60.1945 39.6327 60.1945 39.0894V32.9105C60.1945 32.3673 59.7536 31.9287 59.2074 31.9287H48.9753C48.4292 31.9287 47.9883 32.3673 47.9883 32.9105V39.0894C47.9883 39.6327 48.4292 40.0713 48.9753 40.0713ZM49.9623 33.8923H58.2204V38.1076H49.9623V33.8923Z" fill="#D4FF32"/>
</svg>
