<svg width="76" height="94" viewBox="0 0 76 94" fill="none" xmlns="http://www.w3.org/2000/svg">
<path d="M37.1289 61.478H38.8723V65.9441H37.1289V61.478Z" fill="#D4FF32"/>
<path d="M63.5201 13.926H54.7814L49.6563 7.80888C49.4916 7.61033 49.246 7.49609 48.9897 7.49609H27.1507C26.8943 7.49609 26.6514 7.61033 26.4841 7.80888L21.3374 13.926H12.4799C8.7204 13.9314 5.67066 17.0022 5.66797 20.7911V75.1781C5.66797 75.6649 6.05931 76.0593 6.53969 76.0593H69.4608C69.9412 76.0593 70.3325 75.6649 70.3325 75.1781V20.7911C70.3298 17.0022 67.2796 13.9314 63.5201 13.926ZM27.552 9.25593H48.584L53.2288 14.7991L46.6165 28.8503L39.2135 21.3895L45.688 14.8672C45.9363 14.6169 46.0119 14.2389 45.877 13.9098C45.742 13.5807 45.4235 13.3685 45.07 13.3685H30.9278C30.5742 13.3685 30.2557 13.5807 30.1208 13.9098C29.9858 14.2389 30.0614 14.6169 30.3097 14.8672L36.7492 21.3569L29.3136 28.8504L22.7688 14.9405L27.552 9.25593ZM37.9993 20.13L33.0333 15.1254H42.9652L37.9993 20.13ZM32.2993 74.2998H7.41064V20.7908C7.41333 17.9702 9.68041 15.6855 12.4791 15.6828H21.188L28.2698 30.7291C28.3913 30.9875 28.6288 31.1697 28.9094 31.2187C29.1874 31.2676 29.4735 31.1751 29.6732 30.9739L32.2992 28.3274L32.2993 74.2998ZM41.8911 74.2998H34.0431V26.5707L37.9673 22.616L41.8914 26.5707L41.8911 74.2998ZM68.5886 74.2998H43.635V28.3282L46.261 30.9747C46.4607 31.1759 46.7468 31.2684 47.0248 31.2195C47.3055 31.1705 47.543 30.9883 47.6644 30.7299L54.7435 15.6836H63.5201C66.3188 15.6863 68.5859 17.9711 68.5885 20.7916L68.5886 74.2998Z" fill="#D4FF32"/>
<path d="M37.1289 35.1572H38.8723V39.6233H37.1289V35.1572Z" fill="#D4FF32"/>
<path d="M37.1289 43.9321H38.8723V48.3982H37.1289V43.9321Z" fill="#D4FF32"/>
<path d="M37.1289 52.7061H38.8723V57.1722H37.1289V52.7061Z" fill="#D4FF32"/>
<path d="M62.2447 36.5122H49.9811C49.749 36.5122 49.5277 36.6047 49.3631 36.7706C49.2011 36.9338 49.1094 37.1568 49.1094 37.3907V48.6025C49.1121 51.3523 51.3224 53.5826 54.051 53.5853H58.1721C60.9033 53.5826 63.1137 51.3523 63.1164 48.6025V37.3907C63.1164 37.1568 63.0246 36.9338 62.86 36.7706C62.6981 36.6047 62.4768 36.5122 62.2447 36.5122ZM61.373 48.602C61.3703 50.3835 59.9399 51.8251 58.1722 51.8278H54.051C52.286 51.8251 50.8556 50.3835 50.8529 48.602V43.679H61.3734L61.373 48.602ZM61.373 41.9192H50.8526V38.269H61.373V41.9192Z" fill="#D4FF32"/>
</svg>
